<?xml version="1.0" encoding="UTF-8"?>
<!DOCTYPE svg PUBLIC "-//W3C//DTD SVG 1.1//EN" "http://www.w3.org/Graphics/SVG/1.1/DTD/svg11.dtd">
<svg xmlns="http://www.w3.org/2000/svg" version="1.1" width="256px" height="256px" style="shape-rendering:geometricPrecision; text-rendering:geometricPrecision; image-rendering:optimizeQuality; fill-rule:evenodd; clip-rule:evenodd" xmlns:xlink="http://www.w3.org/1999/xlink">
<g><path style="opacity:0.998" fill="#242937" d="M 48.5,-0.5 C 101.167,-0.5 153.833,-0.5 206.5,-0.5C 232.477,6.14393 248.811,22.4773 255.5,48.5C 255.5,101.167 255.5,153.833 255.5,206.5C 248.807,232.527 232.473,248.86 206.5,255.5C 153.833,255.5 101.167,255.5 48.5,255.5C 22.4734,248.807 6.14008,232.473 -0.5,206.5C -0.5,153.833 -0.5,101.167 -0.5,48.5C 6.14008,22.5266 22.4734,6.19324 48.5,-0.5 Z"/></g>
<g><path style="opacity:1" fill="#72f806" d="M 147.5,69.5 C 151.936,69.2101 156.27,69.7101 160.5,71C 161.059,71.7247 161.392,72.5581 161.5,73.5C 147.219,114.014 132.552,154.347 117.5,194.5C 112.554,195.614 107.554,195.781 102.5,195C 101.281,192.717 101.281,190.384 102.5,188C 116.194,149.446 130.027,110.946 144,72.5C 145.145,71.3636 146.312,70.3636 147.5,69.5 Z"/></g>
<g><path style="opacity:1" fill="#72f806" d="M 88.5,99.5 C 90.1667,99.5 91.8333,99.5 93.5,99.5C 93.6658,104.179 93.4992,108.845 93,113.5C 79.3981,120.717 65.5648,127.551 51.5,134C 65.5648,140.449 79.3981,147.283 93,154.5C 93.6667,159.167 93.6667,163.833 93,168.5C 92.586,168.957 92.086,169.291 91.5,169.5C 72.4319,160.216 53.5986,150.55 35,140.5C 34.3333,136.167 34.3333,131.833 35,127.5C 52.8159,118.01 70.6492,108.677 88.5,99.5 Z"/></g>
<g><path style="opacity:1" fill="#72f706" d="M 171.5,98.5 C 191.002,107.501 210.169,117.168 229,127.5C 229.667,131.833 229.667,136.167 229,140.5C 210.166,151.334 190.666,160.668 170.5,168.5C 170.334,163.821 170.501,159.155 171,154.5C 184.602,147.283 198.435,140.449 212.5,134C 198.435,127.551 184.602,120.717 171,113.5C 170.222,108.416 170.389,103.416 171.5,98.5 Z"/></g>
</svg>
